<?xml version="1.0" standalone="no"?>
<!DOCTYPE svg PUBLIC "-//W3C//DTD SVG 20010904//EN"
 "http://www.w3.org/TR/2001/REC-SVG-20010904/DTD/svg10.dtd">
<svg version="1.0" xmlns="http://www.w3.org/2000/svg"
 width="260.000000pt" height="260.000000pt" viewBox="0 0 260.000000 260.000000"
 preserveAspectRatio="xMidYMid meet">
<metadata>
Created by potrace 1.14, written by Peter Selinger 2001-2017
</metadata>
<g transform="translate(0.000000,260.000000) scale(0.100000,-0.100000)"
fill="#000000" stroke="none">
<path d="M527 2013 c-2 -2 -411 -15 -494 -15 -28 0 -33 -4 -33 -24 0 -22 4
-24 43 -24 58 0 94 -30 101 -85 3 -22 8 -85 11 -140 4 -55 8 -116 10 -135 2
-19 6 -78 10 -130 3 -52 8 -122 11 -155 3 -33 7 -96 10 -140 3 -44 6 -106 8
-138 2 -32 2 -66 -1 -76 -6 -23 -37 -41 -81 -47 -39 -5 -47 -9 -47 -27 -1 -20
12 -23 92 -20 100 3 390 12 426 12 22 1 27 6 27 25 0 22 -3 24 -42 21 -54 -5
-105 17 -118 49 -5 14 -12 62 -15 108 -11 155 -15 223 -20 273 l-4 51 82 -1
c112 -1 221 20 286 56 104 59 144 127 147 252 1 65 -2 86 -24 130 -39 80 -121
143 -209 162 -32 8 -173 22 -176 18z m49 -98 c69 -26 104 -99 105 -220 2 -121
-20 -168 -94 -206 -35 -19 -150 -29 -164 -16 -6 7 -12 50 -17 137 -13 197 -16
248 -21 282 -3 23 0 38 8 41 26 8 144 -3 183 -18z"/>
<path d="M1927 1933 c-15 -15 -5 -31 23 -37 43 -8 51 -38 45 -174 -3 -65 -7
-171 -10 -237 -12 -302 -16 -387 -20 -480 -11 -220 -11 -227 2 -232 12 -5 58
23 97 59 11 10 23 18 26 18 4 0 27 -20 53 -45 73 -69 166 -82 263 -34 50 23
118 96 141 149 47 110 53 141 49 280 -3 118 -6 143 -28 194 -39 92 -101 148
-177 162 -14 3 -28 7 -33 10 -4 3 -8 1 -8 -5 0 -6 -6 -8 -14 -5 -16 6 -83 -20
-108 -43 -20 -18 -29 -14 -29 13 1 25 10 230 15 317 3 63 2 67 -18 68 -11 1
-30 3 -41 4 -11 2 -54 6 -95 9 -41 3 -87 8 -101 11 -14 3 -29 2 -32 -2z m420
-500 l28 -36 -1 -176 c-2 -269 -13 -341 -58 -386 -19 -18 -33 -21 -87 -16 -9
0 -24 19 -34 41 -19 41 -21 122 -10 310 2 36 4 103 5 151 2 88 8 103 50 132
41 28 75 22 107 -20z"/>
<path d="M1077 1611 c3 -11 15 -21 26 -23 40 -6 45 -39 50 -328 2 -151 6 -282
9 -290 24 -73 71 -127 118 -136 16 -4 30 -10 30 -13 0 -4 17 -6 38 -5 20 1 37
3 37 4 0 1 11 3 24 6 33 6 89 42 101 65 16 29 26 23 27 -17 1 -19 3 -37 5 -39
2 -2 65 -7 141 -10 121 -5 137 -4 137 10 0 9 -13 21 -30 26 -22 8 -31 19 -35
42 -3 18 -7 182 -8 364 l-2 333 -25 1 c-64 3 -208 10 -230 12 -19 1 -25 -3
-25 -17 0 -11 8 -20 20 -22 23 -3 45 -30 46 -58 1 -12 2 -122 3 -246 2 -233 0
-250 -41 -296 -26 -30 -51 -42 -78 -36 -47 8 -50 32 -50 368 l0 314 -25 1
c-14 0 -80 3 -147 5 -118 5 -121 5 -116 -15z"/>
</g>
</svg>
